# xmcd
#
# Track frame offsets:
#	150
#	12787
#	27803
#	39777
#	53640
#	65926
#	78411
#	89295
#	103679
#	117107
#	130965
#	142978
#
# Disc length: 2022 seconds
#
# Revision: 1
# Processed by: cddbd v1.5.2PL0 Copyright (c) Steve Scherf et al.
# Submitted via: audiograbber 1.83.01
#
DISCID=9307e40c
DTITLE=jose alfredo jimenez - karaokanta 5
DYEAR=1900
DGENRE=
TTITLE0=el hijo del pueblo
TTITLE1=cuatro copas
TTITLE2=te vas o te quedas
TTITLE3=llego borracho el borracho
TTITLE4=cuando yo tenia tu edad
TTITLE5=las llaves de mi casa
TTITLE6=cuando los anos pasen
TTITLE7=sonaron cuatro balazos
TTITLE8=tierra sin nombre
TTITLE9=una noche de julio
TTITLE10=jose manuel el borrego
TTITLE11=la malagradecida
EXTD=
EXTT0=
EXTT1=
EXTT2=
EXTT3=
EXTT4=
EXTT5=
EXTT6=
EXTT7=
EXTT8=
EXTT9=
EXTT10=
EXTT11=
PLAYORDER=
